<svg width="1834" height="745" viewBox="0 0 1834 745" fill="none" xmlns="http://www.w3.org/2000/svg">
<path d="M53.5 249.1C53.5 196.4 97.1 153.2 149.8 153.2C189.3 153.2 223.4 177.4 237.7 212.5L199.3 230.8C192 209.2 172.6 194.6 149.9 194.6C120.6 194.6 96.8 219.5 96.8 249.2C96.8 279.6 121 304.5 149.9 304.5C173 304.5 192 289.5 199.3 267.5L237.7 285.8C223.8 321.3 189.4 345.8 149.8 345.8C97.1 345.8 53.5 302.2 53.5 249.1Z" fill="black"/>
<path d="M371.3 155L375.7 197.8H374.6C343.1 197.8 320.4 209.9 311.6 230.4V341.7H268.4V157.2H311.2V180.3C324.7 164.2 345.6 155 370.1 155H371.3Z" fill="black"/>
<path d="M389.2 249.1C389.2 196.4 432.8 153.2 485.9 153.2C539 153.2 582.9 196.8 582.9 249.1C582.9 302.2 539.3 345.8 485.9 345.8C432.8 345.8 389.2 302.2 389.2 249.1ZM539.7 249.5C539.7 219.5 515.2 194.6 485.9 194.6C456.6 194.6 432.4 219.1 432.4 249.2C432.4 279.6 456.2 304.5 485.9 304.5C515.2 304.4 539.7 279.5 539.7 249.5Z" fill="black"/>
<path d="M675.5 278.8L717.2 157.3H757.5L798.9 278.5L840.3 157.3H885L821.3 341.8H779.2L737.5 220.3L695.4 341.8H653.3L589.6 157.3H634.3L675.5 278.8Z" fill="black"/>
<path d="M1036.9 56.2H1080.1V341.8H1037.6V324.2C1025.5 338.5 1008.3 345.8 987.1 345.8C935.8 345.8 893.4 302.2 893.4 249.5C893.4 196.8 935.9 153.2 987.1 153.2C1008 153.2 1024.8 160.5 1036.9 174.1V56.2ZM1036.9 276.6V222.4C1027.4 205.6 1009.8 194.6 990.4 194.6C960.7 194.6 936.6 219.1 936.6 249.5C936.6 279.5 960.8 304.4 990.4 304.4C1009.8 304.4 1027.3 293.4 1036.9 276.6Z" fill="black"/>
<path d="M53.5 593.4C53.5 540.7 97.1 497.5 149.8 497.5C189.3 497.5 223.4 521.7 237.7 556.8L199.3 575.1C192 553.5 172.6 538.9 149.9 538.9C120.6 538.9 96.8 563.8 96.8 593.5C96.8 623.9 121 648.8 149.9 648.8C173 648.8 192 633.8 199.3 611.8L237.7 630.1C223.8 665.6 189.4 690.1 149.8 690.1C97.1 690 53.5 646.5 53.5 593.4Z" fill="black"/>
<path d="M259.6 593.4C259.6 540.7 303.2 497.5 356.3 497.5C409.4 497.5 453.3 541.1 453.3 593.4C453.3 646.5 409.7 690.1 356.3 690.1C303.2 690 259.6 646.5 259.6 593.4ZM410.1 593.8C410.1 563.8 385.6 538.9 356.3 538.9C327 538.9 302.8 563.4 302.8 593.5C302.8 623.9 326.6 648.8 356.3 648.8C385.6 648.7 410.1 623.8 410.1 593.8Z" fill="black"/>
<path d="M485.1 686V400.5H528.3V686H485.1Z" fill="black"/>
<path d="M570.4 686V400.5H613.6V686H570.4Z" fill="black"/>
<path d="M830.4 609.5H691.3C696.8 634.4 715.8 650.1 742.9 650.1C763 650.1 779.5 640.9 789.8 624.8L821.7 651.5C804.5 675.7 777 689.6 744.4 689.6C688.4 689.6 646.6 648.6 646.6 593.7C646.6 539.1 687.2 497.4 740 497.4C792 497.4 832.3 539.9 832.3 591.9C832.2 597.1 831.5 603.6 830.4 609.5ZM692.4 573.6H788C781 551.6 763.1 537.7 739.7 537.7C716.3 537.7 698.9 551.7 692.4 573.6Z" fill="black"/>
<path d="M856 593.4C856 540.7 899.6 497.5 952.3 497.5C991.8 497.5 1025.9 521.7 1040.2 556.8L1001.8 575.1C994.5 553.5 975.1 538.9 952.4 538.9C923.1 538.9 899.3 563.8 899.3 593.5C899.3 623.9 923.5 648.8 952.4 648.8C975.5 648.8 994.5 633.8 1001.8 611.8L1040.2 630.1C1026.3 665.6 991.9 690.1 952.3 690.1C899.6 690 856 646.5 856 593.4Z" fill="black"/>
<path d="M1219.6 670.6C1205.7 683 1186.7 690 1166.5 690C1125.9 690 1098 662.5 1098 622.6V542.4H1053.3V501.4H1098V445H1141.2V501.4H1208.2V542.4H1141.2V617.8C1141.2 637.6 1151.8 648.6 1170.5 648.6C1181.5 648.6 1191.4 644.9 1200.9 636.5L1219.6 670.6Z" fill="black"/>
<path d="M1288.7 686H1245.5V501.5H1288.7V686Z" fill="black"/>
<path d="M1457.9 501.5H1502.9L1430.1 686H1385.8L1312.9 501.5H1357.9L1408.1 628.2L1457.9 501.5Z" fill="black"/>
<path d="M1692.9 609.5H1553.8C1559.3 634.4 1578.3 650.1 1605.4 650.1C1625.5 650.1 1642 640.9 1652.3 624.8L1684.2 651.5C1667 675.7 1639.5 689.6 1606.9 689.6C1550.9 689.6 1509.1 648.6 1509.1 593.7C1509.1 539.1 1549.7 497.4 1602.5 497.4C1654.5 497.4 1694.8 539.9 1694.8 591.9C1694.8 597.1 1694 603.6 1692.9 609.5ZM1554.9 573.6H1650.5C1643.5 551.6 1625.6 537.7 1602.2 537.7C1578.8 537.7 1561.5 551.7 1554.9 573.6Z" fill="black"/>
<path d="M1779.1 639.7H1735.9V686.1H1779.1V639.7Z" fill="black"/>
<path d="M1288.7 416.6H1245.5V463H1288.7V416.6Z" fill="black"/>
</svg>
